<svg width="10" height="10" viewBox="0 0 10 10" fill="none" xmlns="http://www.w3.org/2000/svg">
<path d="M9.74997 1V7.5C9.74997 7.69891 9.67095 7.88968 9.5303 8.03033C9.38965 8.17098 9.19889 8.25 8.99997 8.25C8.80106 8.25 8.6103 8.17098 8.46964 8.03033C8.32899 7.88968 8.24997 7.69891 8.24997 7.5V2.8125L1.5306 9.53063C1.3897 9.67152 1.19861 9.75068 0.999348 9.75068C0.800091 9.75068 0.608994 9.67152 0.468098 9.53063C0.327202 9.38973 0.248047 9.19863 0.248047 8.99938C0.248047 8.80012 0.327202 8.60902 0.468098 8.46813L7.18747 1.75H2.49997C2.30106 1.75 2.11029 1.67098 1.96964 1.53033C1.82899 1.38968 1.74997 1.19891 1.74997 1C1.74997 0.801088 1.82899 0.610322 1.96964 0.46967C2.11029 0.329018 2.30106 0.25 2.49997 0.25H8.99997C9.19889 0.25 9.38965 0.329018 9.5303 0.46967C9.67095 0.610322 9.74997 0.801088 9.74997 1Z" fill="#C7C7CC"/>
</svg>
