<svg width="30" height="25" viewBox="0 0 30 25" fill="none" xmlns="http://www.w3.org/2000/svg">
<path d="M29 23H27V11.4438C27 11.167 26.9426 10.8932 26.8314 10.6397C26.7201 10.3862 26.5575 10.1586 26.3538 9.97126L16.3538 0.53626C16.3489 0.531995 16.3443 0.527401 16.34 0.52251C15.9718 0.187677 15.492 0.00213623 14.9944 0.00213623C14.4967 0.00213623 14.0169 0.187677 13.6488 0.52251L13.635 0.53626L3.64625 9.97126C3.4425 10.1586 3.27985 10.3862 3.16861 10.6397C3.05737 10.8932 2.99996 11.167 3 11.4438V23H1C0.734784 23 0.48043 23.1054 0.292893 23.2929C0.105357 23.4804 0 23.7348 0 24C0 24.2652 0.105357 24.5196 0.292893 24.7071C0.48043 24.8947 0.734784 25 1 25H29C29.2652 25 29.5196 24.8947 29.7071 24.7071C29.8946 24.5196 30 24.2652 30 24C30 23.7348 29.8946 23.4804 29.7071 23.2929C29.5196 23.1054 29.2652 23 29 23ZM18 23H12V17C12 16.7348 12.1054 16.4804 12.2929 16.2929C12.4804 16.1054 12.7348 16 13 16H17C17.2652 16 17.5196 16.1054 17.7071 16.2929C17.8946 16.4804 18 16.7348 18 17V23Z" fill="#0055D3"/>
</svg>
