<svg width="23" height="24" viewBox="0 0 23 24" fill="none" xmlns="http://www.w3.org/2000/svg">
<path d="M23 4.00006C22.9996 3.25201 22.7895 2.51906 22.3935 1.88444C21.9974 1.24982 21.4314 0.738966 20.7596 0.409897C20.0878 0.0808275 19.3372 -0.053271 18.5931 0.0228304C17.8489 0.0989319 17.141 0.382183 16.5497 0.840417C15.9585 1.29865 15.5075 1.9135 15.2482 2.61515C14.9888 3.31679 14.9314 4.0771 15.0824 4.80975C15.2334 5.54239 15.5869 6.21799 16.1026 6.75984C16.6184 7.30168 17.2757 7.68805 18 7.87506V9.00006C18 9.53049 17.7893 10.0392 17.4142 10.4143C17.0392 10.7893 16.5304 11.0001 16 11.0001H7.00001C6.29738 10.9992 5.60714 11.1851 5.00001 11.5388V7.87506C5.94267 7.63167 6.7642 7.05283 7.31061 6.24705C7.85702 5.44127 8.0908 4.46387 7.96813 3.49806C7.84545 2.53225 7.37475 1.64433 6.64424 1.00074C5.91374 0.35715 4.97358 0.00207704 4.00001 0.00207704C3.02644 0.00207704 2.08628 0.35715 1.35578 1.00074C0.625271 1.64433 0.154565 2.53225 0.031891 3.49806C-0.0907835 4.46387 0.142996 5.44127 0.689408 6.24705C1.23582 7.05283 2.05735 7.63167 3.00001 7.87506V16.1251C2.05735 16.3685 1.23582 16.9473 0.689408 17.7531C0.142996 18.5588 -0.0907835 19.5362 0.031891 20.5021C0.154565 21.4679 0.625271 22.3558 1.35578 22.9994C2.08628 23.643 3.02644 23.998 4.00001 23.998C4.97358 23.998 5.91374 23.643 6.64424 22.9994C7.37475 22.3558 7.84545 21.4679 7.96813 20.5021C8.0908 19.5362 7.85702 18.5588 7.31061 17.7531C6.7642 16.9473 5.94267 16.3685 5.00001 16.1251V15.0001C5.00001 14.4696 5.21072 13.9609 5.5858 13.5858C5.96087 13.2108 6.46958 13.0001 7.00001 13.0001H16C17.0609 13.0001 18.0783 12.5786 18.8284 11.8285C19.5786 11.0783 20 10.0609 20 9.00006V7.87506C20.8583 7.65212 21.6185 7.15077 22.1613 6.44956C22.7042 5.74834 22.9992 4.88686 23 4.00006ZM2.00001 4.00006C2.00001 3.6045 2.11731 3.21782 2.33707 2.88892C2.55683 2.56002 2.86919 2.30368 3.23464 2.1523C3.6001 2.00093 4.00223 1.96132 4.39019 2.03849C4.77815 2.11566 5.13452 2.30614 5.41422 2.58585C5.69393 2.86555 5.88441 3.22192 5.96158 3.60988C6.03875 3.99784 5.99914 4.39997 5.84777 4.76543C5.69639 5.13088 5.44005 5.44324 5.11115 5.663C4.78225 5.88276 4.39557 6.00006 4.00001 6.00006C3.46958 6.00006 2.96087 5.78935 2.5858 5.41427C2.21072 5.0392 2.00001 4.53049 2.00001 4.00006ZM6.00001 20.0001C6.00001 20.3956 5.88271 20.7823 5.66295 21.1112C5.44319 21.4401 5.13083 21.6964 4.76538 21.8478C4.39992 21.9992 3.99779 22.0388 3.60983 21.9616C3.22187 21.8845 2.8655 21.694 2.5858 21.4143C2.30609 21.1346 2.11561 20.7782 2.03844 20.3902C1.96127 20.0023 2.00087 19.6001 2.15225 19.2347C2.30363 18.8692 2.55997 18.5569 2.88887 18.3371C3.21777 18.1174 3.60445 18.0001 4.00001 18.0001C4.53044 18.0001 5.03915 18.2108 5.41422 18.5858C5.7893 18.9609 6.00001 19.4696 6.00001 20.0001ZM19 6.00006C18.6044 6.00006 18.2178 5.88276 17.8889 5.663C17.56 5.44324 17.3036 5.13088 17.1523 4.76543C17.0009 4.39997 16.9613 3.99784 17.0384 3.60988C17.1156 3.22192 17.3061 2.86555 17.5858 2.58585C17.8655 2.30614 18.2219 2.11566 18.6098 2.03849C18.9978 1.96132 19.3999 2.00093 19.7654 2.1523C20.1308 2.30368 20.4432 2.56002 20.6629 2.88892C20.8827 3.21782 21 3.6045 21 4.00006C21 4.53049 20.7893 5.0392 20.4142 5.41427C20.0392 5.78935 19.5304 6.00006 19 6.00006Z" fill="black"/>
</svg>
