<svg width="24" height="25" viewBox="0 0 24 25" fill="none" xmlns="http://www.w3.org/2000/svg">
<path d="M22 0H2C1.46957 0 0.960859 0.210714 0.585786 0.585786C0.210714 0.960859 0 1.46957 0 2V9.3475C0 20.5487 9.4775 24.265 11.375 24.8962C11.7803 25.0341 12.2197 25.0341 12.625 24.8962C14.525 24.265 24 20.5487 24 9.3475V2C24 1.46957 23.7893 0.960859 23.4142 0.585786C23.0391 0.210714 22.5304 0 22 0ZM22 9.34875C22 19.1512 13.7063 22.4263 12 22.9963C10.3088 22.4325 2 19.16 2 9.34875V2H22V9.34875ZM6.2925 12.7075C6.10486 12.5199 5.99944 12.2654 5.99944 12C5.99944 11.7346 6.10486 11.4801 6.2925 11.2925C6.48014 11.1049 6.73464 10.9994 7 10.9994C7.26536 10.9994 7.51986 11.1049 7.7075 11.2925L10 13.585L16.2925 7.2925C16.3854 7.19959 16.4957 7.12589 16.6171 7.07561C16.7385 7.02532 16.8686 6.99944 17 6.99944C17.1314 6.99944 17.2615 7.02532 17.3829 7.07561C17.5043 7.12589 17.6146 7.19959 17.7075 7.2925C17.8004 7.38541 17.8741 7.49571 17.9244 7.6171C17.9747 7.7385 18.0006 7.86861 18.0006 8C18.0006 8.1314 17.9747 8.2615 17.9244 8.3829C17.8741 8.50429 17.8004 8.61459 17.7075 8.7075L10.7075 15.7075C10.6146 15.8005 10.5043 15.8742 10.3829 15.9246C10.2615 15.9749 10.1314 16.0008 10 16.0008C9.86858 16.0008 9.73846 15.9749 9.61706 15.9246C9.49566 15.8742 9.38537 15.8005 9.2925 15.7075L6.2925 12.7075Z" fill="black"/>
</svg>
