<svg width="28" height="27" viewBox="0 0 28 27" fill="none" xmlns="http://www.w3.org/2000/svg">
<path d="M27.9001 10.1612C27.7789 9.78798 27.5507 9.45858 27.2437 9.21409C26.9368 8.96959 26.5647 8.8208 26.1738 8.78625L18.7501 8.14624L15.8401 1.22624C15.6885 0.86314 15.433 0.552979 15.1056 0.334817C14.7781 0.116654 14.3935 0.000244141 14.0001 0.000244141C13.6066 0.000244141 13.222 0.116654 12.8945 0.334817C12.5671 0.552979 12.3116 0.86314 12.1601 1.22624L9.2588 8.14624L1.8263 8.79C1.43385 8.82297 1.05986 8.97109 0.75125 9.21576C0.442637 9.46044 0.213133 9.79079 0.0915171 10.1654C-0.0300982 10.54 -0.0384107 10.9421 0.0676221 11.3214C0.173655 11.7007 0.389313 12.0403 0.687552 12.2975L6.3263 17.225L4.6363 24.5425C4.54694 24.9254 4.57244 25.3262 4.70961 25.6947C4.84679 26.0632 5.08955 26.3831 5.40755 26.6144C5.72554 26.8457 6.10467 26.9782 6.49752 26.9951C6.89037 27.0121 7.27952 26.913 7.6163 26.71L13.9913 22.835L20.3801 26.71C20.7168 26.913 21.106 27.0121 21.4988 26.9951C21.8917 26.9782 22.2708 26.8457 22.5888 26.6144C22.9068 26.3831 23.1496 26.0632 23.2867 25.6947C23.4239 25.3262 23.4494 24.9254 23.3601 24.5425L21.6713 17.2175L27.3088 12.2975C27.607 12.0394 27.8222 11.6989 27.9274 11.3188C28.0326 10.9387 28.0231 10.5359 27.9001 10.1612ZM25.9976 10.7862L20.3601 15.7062C20.0857 15.9449 19.8816 16.2539 19.7697 16.5999C19.6578 16.9459 19.6424 17.3159 19.7251 17.67L21.4188 25L15.0351 21.125C14.7236 20.9353 14.366 20.835 14.0013 20.835C13.6366 20.835 13.279 20.9353 12.9676 21.125L6.59255 25L8.27505 17.675C8.35774 17.3209 8.34231 16.9509 8.23042 16.6049C8.11854 16.2589 7.91443 15.9499 7.64005 15.7112L2.00005 10.7937C1.99959 10.79 1.99959 10.7862 2.00005 10.7825L9.43005 10.14C9.7928 10.108 10.1399 9.97761 10.434 9.76283C10.7281 9.54806 10.958 9.25706 11.0988 8.92125L14.0001 2.00999L16.9001 8.92125C17.0409 9.25706 17.2708 9.54806 17.5648 9.76283C17.8589 9.97761 18.206 10.108 18.5688 10.14L26.0001 10.7825C26.0001 10.7825 26.0001 10.79 26.0001 10.7912L25.9976 10.7862Z" fill="black"/>
</svg>
