<svg width="27" height="26" viewBox="0 0 27 26" fill="none" xmlns="http://www.w3.org/2000/svg">
<path d="M25.845 5.62501C25.7843 5.47508 25.6882 5.3421 25.5649 5.23748C25.4415 5.13286 25.2947 5.05971 25.1369 5.02431C24.979 4.98892 24.815 4.99233 24.6588 5.03425C24.5026 5.07617 24.3589 5.15535 24.24 5.26501L19.2025 9.91376L17.0487 9.45126L16.5862 7.29751L21.235 2.26001C21.3447 2.14112 21.4238 1.99742 21.4658 1.84121C21.5077 1.685 21.5111 1.52096 21.4757 1.36315C21.4403 1.20533 21.3671 1.05846 21.2625 0.935126C21.1579 0.811789 21.0249 0.715669 20.875 0.655009C19.5087 0.102301 18.0275 -0.106387 16.5616 0.0472825C15.0958 0.200952 13.6901 0.712274 12.4681 1.53632C11.2461 2.36037 10.2452 3.47193 9.55329 4.77332C8.8614 6.07472 8.49971 7.52612 8.5 9.00001C8.49838 10.2446 8.75371 11.4761 9.25 12.6175L1.72375 19.125C1.705 19.14 1.6875 19.1575 1.67 19.1738C0.919767 19.924 0.498291 20.9415 0.498291 22.0025C0.498291 22.5279 0.601766 23.0481 0.802808 23.5334C1.00385 24.0188 1.29852 24.4598 1.67 24.8313C2.04147 25.2027 2.48248 25.4974 2.96784 25.6985C3.4532 25.8995 3.9734 26.003 4.49875 26.003C5.55973 26.003 6.57727 25.5815 7.3275 24.8313C7.34375 24.815 7.36125 24.7963 7.37625 24.7788L13.8825 17.25C15.253 17.8516 16.752 18.1019 18.2436 17.9783C19.7353 17.8546 21.1725 17.3608 22.4253 16.5417C23.678 15.7226 24.7067 14.604 25.4182 13.2871C26.1297 11.9703 26.5015 10.4968 26.5 9.00001C26.5019 7.84324 26.2795 6.69707 25.845 5.62501ZM17.5 16C16.3163 15.9984 15.1523 15.6974 14.1162 15.125C13.9155 15.0141 13.6828 14.9756 13.457 15.0159C13.2313 15.0561 13.0262 15.1728 12.8762 15.3463L5.88875 23.4388C5.51062 23.798 5.00712 23.9953 4.4856 23.9886C3.96408 23.982 3.46579 23.7718 3.09699 23.403C2.72819 23.0342 2.51805 22.5359 2.51137 22.0144C2.50469 21.4929 2.70201 20.9894 3.06125 20.6113L11.1475 13.625C11.3213 13.475 11.4381 13.2697 11.4784 13.0436C11.5187 12.8176 11.48 12.5846 11.3687 12.3838C10.7313 11.2308 10.4321 9.92137 10.5057 8.60598C10.5792 7.2906 11.0224 6.02266 11.7844 4.94795C12.5464 3.87324 13.5963 3.03538 14.8132 2.53069C16.0301 2.02601 17.3648 1.875 18.6637 2.09501L14.7637 6.32126C14.6552 6.43898 14.5766 6.58103 14.5344 6.73546C14.4922 6.8899 14.4877 7.05222 14.5212 7.20876L15.2287 10.5C15.2692 10.6882 15.3632 10.8608 15.4993 10.997C15.6355 11.1331 15.808 11.227 15.9962 11.2675L19.29 11.975C19.4465 12.0086 19.6089 12.0041 19.7633 11.9619C19.9177 11.9197 20.0598 11.841 20.1775 11.7325L24.4037 7.83251C24.5722 8.83627 24.52 9.86468 24.2508 10.8462C23.9816 11.8278 23.5017 12.7389 22.8447 13.5162C22.1876 14.2935 21.3692 14.9184 20.4462 15.3473C19.5232 15.7763 18.5178 15.999 17.5 16Z" fill="black"/>
</svg>
