<svg width="22" height="26" viewBox="0 0 22 26" fill="none" xmlns="http://www.w3.org/2000/svg">
<path d="M22 12V24C22 24.5304 21.7893 25.0391 21.4142 25.4142C21.0391 25.7893 20.5304 26 20 26H2C1.46957 26 0.960859 25.7893 0.585786 25.4142C0.210714 25.0391 0 24.5304 0 24V12C0 11.4696 0.210714 10.9609 0.585786 10.5858C0.960859 10.2107 1.46957 9.99999 2 9.99999H5C5.26522 9.99999 5.51957 10.1054 5.70711 10.2929C5.89464 10.4804 6 10.7348 6 11C6 11.2652 5.89464 11.5196 5.70711 11.7071C5.51957 11.8946 5.26522 12 5 12H2V24H20V12H17C16.7348 12 16.4804 11.8946 16.2929 11.7071C16.1054 11.5196 16 11.2652 16 11C16 10.7348 16.1054 10.4804 16.2929 10.2929C16.4804 10.1054 16.7348 9.99999 17 9.99999H20C20.5304 9.99999 21.0391 10.2107 21.4142 10.5858C21.7893 10.9609 22 11.4696 22 12ZM6.7075 6.70749L10 3.41374V15C10 15.2652 10.1054 15.5196 10.2929 15.7071C10.4804 15.8946 10.7348 16 11 16C11.2652 16 11.5196 15.8946 11.7071 15.7071C11.8946 15.5196 12 15.2652 12 15V3.41374L15.2925 6.70749C15.4801 6.89513 15.7346 7.00055 16 7.00055C16.2654 7.00055 16.5199 6.89513 16.7075 6.70749C16.8951 6.51985 17.0006 6.26536 17.0006 5.99999C17.0006 5.73463 16.8951 5.48013 16.7075 5.29249L11.7075 0.292493C11.6146 0.199517 11.5043 0.125758 11.3829 0.0754334C11.2615 0.0251091 11.1314 -0.000793457 11 -0.000793457C10.8686 -0.000793457 10.7385 0.0251091 10.6171 0.0754334C10.4957 0.125758 10.3854 0.199517 10.2925 0.292493L5.2925 5.29249C5.10486 5.48013 4.99944 5.73463 4.99944 5.99999C4.99944 6.26536 5.10486 6.51985 5.2925 6.70749C5.48014 6.89513 5.73464 7.00055 6 7.00055C6.26536 7.00055 6.51986 6.89513 6.7075 6.70749Z" fill="black"/>
</svg>
